<mxfile host="65bd71144e">
    <diagram id="6BZ5H7NylUogR3pFXLl7" name="Page-1">
        <mxGraphModel dx="0" dy="471" grid="1" gridSize="10" guides="1" tooltips="1" connect="1" arrows="1" fold="1" page="1" pageScale="1" pageWidth="827" pageHeight="1169" math="0" shadow="0">
            <root>
                <mxCell id="0"/>
                <mxCell id="1" parent="0"/>
                <mxCell id="368" value="" style="shape=curlyBracket;whiteSpace=wrap;html=1;rounded=1;flipH=1;labelPosition=right;verticalLabelPosition=middle;align=left;verticalAlign=middle;fontSize=16;fontColor=#F00707;size=0;direction=north;" parent="1" vertex="1">
                    <mxGeometry x="400" y="480" width="320" height="20" as="geometry"/>
                </mxCell>
                <mxCell id="2" value="" style="rounded=0;whiteSpace=wrap;html=1;" parent="1" vertex="1">
                    <mxGeometry x="80" y="160" width="40" height="40" as="geometry"/>
                </mxCell>
                <mxCell id="3" value="Header" style="text;html=1;strokeColor=none;fillColor=none;align=center;verticalAlign=middle;whiteSpace=wrap;rounded=0;" parent="1" vertex="1">
                    <mxGeometry x="70" y="80" width="60" height="30" as="geometry"/>
                </mxCell>
                <mxCell id="4" value="" style="rounded=0;whiteSpace=wrap;html=1;" parent="1" vertex="1">
                    <mxGeometry x="120" y="160" width="40" height="40" as="geometry"/>
                </mxCell>
                <mxCell id="5" value="" style="rounded=0;whiteSpace=wrap;html=1;" parent="1" vertex="1">
                    <mxGeometry x="160" y="160" width="40" height="40" as="geometry"/>
                </mxCell>
                <mxCell id="6" value="" style="rounded=0;whiteSpace=wrap;html=1;" parent="1" vertex="1">
                    <mxGeometry x="200" y="160" width="40" height="40" as="geometry"/>
                </mxCell>
                <mxCell id="8" value="" style="rounded=0;whiteSpace=wrap;html=1;" parent="1" vertex="1">
                    <mxGeometry x="240" y="160" width="40" height="40" as="geometry"/>
                </mxCell>
                <mxCell id="9" value="" style="rounded=0;whiteSpace=wrap;html=1;" parent="1" vertex="1">
                    <mxGeometry x="280" y="160" width="40" height="40" as="geometry"/>
                </mxCell>
                <mxCell id="10" value="" style="rounded=0;whiteSpace=wrap;html=1;" parent="1" vertex="1">
                    <mxGeometry x="320" y="160" width="40" height="40" as="geometry"/>
                </mxCell>
                <mxCell id="11" value="" style="rounded=0;whiteSpace=wrap;html=1;" parent="1" vertex="1">
                    <mxGeometry x="360" y="160" width="40" height="40" as="geometry"/>
                </mxCell>
                <mxCell id="12" value="0" style="text;html=1;strokeColor=none;fillColor=none;align=center;verticalAlign=middle;whiteSpace=wrap;rounded=0;" parent="1" vertex="1">
                    <mxGeometry x="50" y="130" width="60" height="30" as="geometry"/>
                </mxCell>
                <mxCell id="13" value="1" style="text;html=1;strokeColor=none;fillColor=none;align=center;verticalAlign=middle;whiteSpace=wrap;rounded=0;" parent="1" vertex="1">
                    <mxGeometry x="90" y="130" width="60" height="30" as="geometry"/>
                </mxCell>
                <mxCell id="14" value="2" style="text;html=1;strokeColor=none;fillColor=none;align=center;verticalAlign=middle;whiteSpace=wrap;rounded=0;" parent="1" vertex="1">
                    <mxGeometry x="130" y="130" width="60" height="30" as="geometry"/>
                </mxCell>
                <mxCell id="15" value="3" style="text;html=1;strokeColor=none;fillColor=none;align=center;verticalAlign=middle;whiteSpace=wrap;rounded=0;" parent="1" vertex="1">
                    <mxGeometry x="170" y="130" width="60" height="30" as="geometry"/>
                </mxCell>
                <mxCell id="16" value="4" style="text;html=1;strokeColor=none;fillColor=none;align=center;verticalAlign=middle;whiteSpace=wrap;rounded=0;" parent="1" vertex="1">
                    <mxGeometry x="210" y="130" width="60" height="30" as="geometry"/>
                </mxCell>
                <mxCell id="17" value="5" style="text;html=1;strokeColor=none;fillColor=none;align=center;verticalAlign=middle;whiteSpace=wrap;rounded=0;" parent="1" vertex="1">
                    <mxGeometry x="250" y="130" width="60" height="30" as="geometry"/>
                </mxCell>
                <mxCell id="18" value="6" style="text;html=1;strokeColor=none;fillColor=none;align=center;verticalAlign=middle;whiteSpace=wrap;rounded=0;" parent="1" vertex="1">
                    <mxGeometry x="290" y="130" width="60" height="30" as="geometry"/>
                </mxCell>
                <mxCell id="19" value="7" style="text;html=1;strokeColor=none;fillColor=none;align=center;verticalAlign=middle;whiteSpace=wrap;rounded=0;" parent="1" vertex="1">
                    <mxGeometry x="330" y="130" width="60" height="30" as="geometry"/>
                </mxCell>
                <mxCell id="20" value="8" style="text;html=1;strokeColor=none;fillColor=none;align=center;verticalAlign=middle;whiteSpace=wrap;rounded=0;" parent="1" vertex="1">
                    <mxGeometry x="370" y="130" width="60" height="30" as="geometry"/>
                </mxCell>
                <mxCell id="21" value="payload..." style="rounded=0;whiteSpace=wrap;html=1;dashed=1;" parent="1" vertex="1">
                    <mxGeometry x="240" y="160" width="280" height="40" as="geometry"/>
                </mxCell>
                <mxCell id="22" value="&lt;div style=&quot;background-color: rgb(38, 50, 56); font-family: &amp;quot;Droid Sans Mono&amp;quot;, &amp;quot;monospace&amp;quot;, monospace; line-height: 19px;&quot;&gt;&lt;font style=&quot;font-size: 12px;&quot; color=&quot;#ffcb6b&quot;&gt;TS CLIENT TO SERVER MESSAGE TYPE&lt;/font&gt;&lt;/div&gt;" style="rounded=0;whiteSpace=wrap;html=1;" parent="1" vertex="1">
                    <mxGeometry x="80" y="160" width="160" height="40" as="geometry"/>
                </mxCell>
                <mxCell id="23" value="Client to server send tuple message" style="text;html=1;strokeColor=none;fillColor=none;align=center;verticalAlign=middle;whiteSpace=wrap;rounded=0;dashed=1;" parent="1" vertex="1">
                    <mxGeometry x="80" y="250" width="200" height="30" as="geometry"/>
                </mxCell>
                <mxCell id="41" value="1" style="rounded=0;whiteSpace=wrap;html=1;" parent="1" vertex="1">
                    <mxGeometry x="80" y="310" width="40" height="40" as="geometry"/>
                </mxCell>
                <mxCell id="42" value="0" style="rounded=0;whiteSpace=wrap;html=1;" parent="1" vertex="1">
                    <mxGeometry x="120" y="310" width="40" height="40" as="geometry"/>
                </mxCell>
                <mxCell id="43" value="0" style="rounded=0;whiteSpace=wrap;html=1;" parent="1" vertex="1">
                    <mxGeometry x="160" y="310" width="40" height="40" as="geometry"/>
                </mxCell>
                <mxCell id="44" value="0" style="rounded=0;whiteSpace=wrap;html=1;" parent="1" vertex="1">
                    <mxGeometry x="200" y="310" width="40" height="40" as="geometry"/>
                </mxCell>
                <mxCell id="45" value="0" style="rounded=0;whiteSpace=wrap;html=1;" parent="1" vertex="1">
                    <mxGeometry x="240" y="310" width="40" height="40" as="geometry"/>
                </mxCell>
                <mxCell id="46" value="0" style="rounded=0;whiteSpace=wrap;html=1;" parent="1" vertex="1">
                    <mxGeometry x="280" y="310" width="40" height="40" as="geometry"/>
                </mxCell>
                <mxCell id="47" value="0" style="rounded=0;whiteSpace=wrap;html=1;" parent="1" vertex="1">
                    <mxGeometry x="320" y="310" width="40" height="40" as="geometry"/>
                </mxCell>
                <mxCell id="48" value="0" style="rounded=0;whiteSpace=wrap;html=1;" parent="1" vertex="1">
                    <mxGeometry x="360" y="310" width="40" height="40" as="geometry"/>
                </mxCell>
                <mxCell id="49" value="0" style="text;html=1;strokeColor=none;fillColor=none;align=center;verticalAlign=middle;whiteSpace=wrap;rounded=0;" parent="1" vertex="1">
                    <mxGeometry x="50" y="280" width="60" height="30" as="geometry"/>
                </mxCell>
                <mxCell id="50" value="1" style="text;html=1;strokeColor=none;fillColor=none;align=center;verticalAlign=middle;whiteSpace=wrap;rounded=0;" parent="1" vertex="1">
                    <mxGeometry x="90" y="280" width="60" height="30" as="geometry"/>
                </mxCell>
                <mxCell id="51" value="2" style="text;html=1;strokeColor=none;fillColor=none;align=center;verticalAlign=middle;whiteSpace=wrap;rounded=0;" parent="1" vertex="1">
                    <mxGeometry x="130" y="280" width="60" height="30" as="geometry"/>
                </mxCell>
                <mxCell id="52" value="3" style="text;html=1;strokeColor=none;fillColor=none;align=center;verticalAlign=middle;whiteSpace=wrap;rounded=0;" parent="1" vertex="1">
                    <mxGeometry x="170" y="280" width="60" height="30" as="geometry"/>
                </mxCell>
                <mxCell id="53" value="4" style="text;html=1;strokeColor=none;fillColor=none;align=center;verticalAlign=middle;whiteSpace=wrap;rounded=0;" parent="1" vertex="1">
                    <mxGeometry x="210" y="280" width="60" height="30" as="geometry"/>
                </mxCell>
                <mxCell id="54" value="5" style="text;html=1;strokeColor=none;fillColor=none;align=center;verticalAlign=middle;whiteSpace=wrap;rounded=0;" parent="1" vertex="1">
                    <mxGeometry x="250" y="280" width="60" height="30" as="geometry"/>
                </mxCell>
                <mxCell id="55" value="6" style="text;html=1;strokeColor=none;fillColor=none;align=center;verticalAlign=middle;whiteSpace=wrap;rounded=0;" parent="1" vertex="1">
                    <mxGeometry x="290" y="280" width="60" height="30" as="geometry"/>
                </mxCell>
                <mxCell id="56" value="7" style="text;html=1;strokeColor=none;fillColor=none;align=center;verticalAlign=middle;whiteSpace=wrap;rounded=0;" parent="1" vertex="1">
                    <mxGeometry x="330" y="280" width="60" height="30" as="geometry"/>
                </mxCell>
                <mxCell id="60" value="8" style="text;html=1;strokeColor=none;fillColor=none;align=center;verticalAlign=middle;whiteSpace=wrap;rounded=0;" parent="1" vertex="1">
                    <mxGeometry x="370" y="280" width="60" height="30" as="geometry"/>
                </mxCell>
                <mxCell id="81" value="&lt;div style=&quot;background-color: rgb(38, 50, 56); font-family: &amp;quot;Droid Sans Mono&amp;quot;, &amp;quot;monospace&amp;quot;, monospace; font-size: 14px; line-height: 19px;&quot;&gt;&lt;font color=&quot;#ffcb6b&quot;&gt;TUPLE SIZE-1&lt;/font&gt;&lt;/div&gt;" style="rounded=0;whiteSpace=wrap;html=1;" parent="1" vertex="1">
                    <mxGeometry x="240" y="310" width="160" height="40" as="geometry"/>
                </mxCell>
                <mxCell id="82" value="TUPLE SIZE of tuple fragments..." style="rounded=0;whiteSpace=wrap;html=1;dashed=1;" parent="1" vertex="1">
                    <mxGeometry x="400" y="310" width="130" height="40" as="geometry"/>
                </mxCell>
                <mxCell id="83" value="Tuple fragment - with data and not bool" style="text;html=1;strokeColor=none;fillColor=none;align=center;verticalAlign=middle;whiteSpace=wrap;rounded=0;fontSize=12;" parent="1" vertex="1">
                    <mxGeometry x="80" y="490" width="220" height="30" as="geometry"/>
                </mxCell>
                <mxCell id="113" value="1" style="rounded=0;whiteSpace=wrap;html=1;" parent="1" vertex="1">
                    <mxGeometry x="360" y="545" width="40" height="40" as="geometry"/>
                </mxCell>
                <mxCell id="114" value="Not used" style="rounded=0;whiteSpace=wrap;html=1;" parent="1" vertex="1">
                    <mxGeometry x="320" y="685" width="40" height="40" as="geometry"/>
                </mxCell>
                <mxCell id="115" value="0" style="rounded=0;whiteSpace=wrap;html=1;" parent="1" vertex="1">
                    <mxGeometry x="160" y="545" width="40" height="40" as="geometry"/>
                </mxCell>
                <mxCell id="116" value="0" style="rounded=0;whiteSpace=wrap;html=1;" parent="1" vertex="1">
                    <mxGeometry x="200" y="545" width="40" height="40" as="geometry"/>
                </mxCell>
                <mxCell id="117" value="0" style="rounded=0;whiteSpace=wrap;html=1;" parent="1" vertex="1">
                    <mxGeometry x="240" y="545" width="40" height="40" as="geometry"/>
                </mxCell>
                <mxCell id="118" value="0" style="rounded=0;whiteSpace=wrap;html=1;" parent="1" vertex="1">
                    <mxGeometry x="280" y="545" width="40" height="40" as="geometry"/>
                </mxCell>
                <mxCell id="119" value="0" style="rounded=0;whiteSpace=wrap;html=1;" parent="1" vertex="1">
                    <mxGeometry x="320" y="545" width="40" height="40" as="geometry"/>
                </mxCell>
                <mxCell id="120" value="1" style="rounded=0;whiteSpace=wrap;html=1;" parent="1" vertex="1">
                    <mxGeometry x="360" y="545" width="40" height="40" as="geometry"/>
                </mxCell>
                <mxCell id="121" value="0" style="text;html=1;strokeColor=none;fillColor=none;align=center;verticalAlign=middle;whiteSpace=wrap;rounded=0;" parent="1" vertex="1">
                    <mxGeometry x="50" y="515" width="60" height="30" as="geometry"/>
                </mxCell>
                <mxCell id="122" value="1" style="text;html=1;strokeColor=none;fillColor=none;align=center;verticalAlign=middle;whiteSpace=wrap;rounded=0;" parent="1" vertex="1">
                    <mxGeometry x="90" y="515" width="60" height="30" as="geometry"/>
                </mxCell>
                <mxCell id="123" value="2" style="text;html=1;strokeColor=none;fillColor=none;align=center;verticalAlign=middle;whiteSpace=wrap;rounded=0;" parent="1" vertex="1">
                    <mxGeometry x="130" y="515" width="60" height="30" as="geometry"/>
                </mxCell>
                <mxCell id="124" value="3" style="text;html=1;strokeColor=none;fillColor=none;align=center;verticalAlign=middle;whiteSpace=wrap;rounded=0;" parent="1" vertex="1">
                    <mxGeometry x="170" y="515" width="60" height="30" as="geometry"/>
                </mxCell>
                <mxCell id="125" value="4" style="text;html=1;strokeColor=none;fillColor=none;align=center;verticalAlign=middle;whiteSpace=wrap;rounded=0;" parent="1" vertex="1">
                    <mxGeometry x="210" y="515" width="60" height="30" as="geometry"/>
                </mxCell>
                <mxCell id="126" value="5" style="text;html=1;strokeColor=none;fillColor=none;align=center;verticalAlign=middle;whiteSpace=wrap;rounded=0;" parent="1" vertex="1">
                    <mxGeometry x="250" y="515" width="60" height="30" as="geometry"/>
                </mxCell>
                <mxCell id="127" value="6" style="text;html=1;strokeColor=none;fillColor=none;align=center;verticalAlign=middle;whiteSpace=wrap;rounded=0;" parent="1" vertex="1">
                    <mxGeometry x="290" y="515" width="60" height="30" as="geometry"/>
                </mxCell>
                <mxCell id="128" value="7" style="text;html=1;strokeColor=none;fillColor=none;align=center;verticalAlign=middle;whiteSpace=wrap;rounded=0;" parent="1" vertex="1">
                    <mxGeometry x="330" y="515" width="60" height="30" as="geometry"/>
                </mxCell>
                <mxCell id="130" value="Contains data" style="text;html=1;strokeColor=none;fillColor=none;align=center;verticalAlign=middle;whiteSpace=wrap;rounded=0;fontSize=12;" parent="1" vertex="1">
                    <mxGeometry x="350" y="585" width="60" height="30" as="geometry"/>
                </mxCell>
                <mxCell id="131" value="8" style="text;html=1;strokeColor=none;fillColor=none;align=center;verticalAlign=middle;whiteSpace=wrap;rounded=0;" parent="1" vertex="1">
                    <mxGeometry x="370" y="515" width="60" height="30" as="geometry"/>
                </mxCell>
                <mxCell id="132" value="Tuple fragment - with no data" style="text;html=1;strokeColor=none;fillColor=none;align=center;verticalAlign=middle;whiteSpace=wrap;rounded=0;fontSize=12;" parent="1" vertex="1">
                    <mxGeometry x="80" y="630" width="170" height="30" as="geometry"/>
                </mxCell>
                <mxCell id="133" value="0" style="rounded=0;whiteSpace=wrap;html=1;" parent="1" vertex="1">
                    <mxGeometry x="80" y="685" width="40" height="40" as="geometry"/>
                </mxCell>
                <mxCell id="135" value="0" style="rounded=0;whiteSpace=wrap;html=1;" parent="1" vertex="1">
                    <mxGeometry x="160" y="685" width="40" height="40" as="geometry"/>
                </mxCell>
                <mxCell id="136" value="0" style="rounded=0;whiteSpace=wrap;html=1;" parent="1" vertex="1">
                    <mxGeometry x="200" y="685" width="40" height="40" as="geometry"/>
                </mxCell>
                <mxCell id="137" value="0" style="rounded=0;whiteSpace=wrap;html=1;" parent="1" vertex="1">
                    <mxGeometry x="240" y="685" width="40" height="40" as="geometry"/>
                </mxCell>
                <mxCell id="138" value="0" style="rounded=0;whiteSpace=wrap;html=1;" parent="1" vertex="1">
                    <mxGeometry x="280" y="685" width="40" height="40" as="geometry"/>
                </mxCell>
                <mxCell id="140" value="0" style="rounded=0;whiteSpace=wrap;html=1;" parent="1" vertex="1">
                    <mxGeometry x="360" y="685" width="40" height="40" as="geometry"/>
                </mxCell>
                <mxCell id="141" value="0" style="text;html=1;strokeColor=none;fillColor=none;align=center;verticalAlign=middle;whiteSpace=wrap;rounded=0;" parent="1" vertex="1">
                    <mxGeometry x="50" y="655" width="60" height="30" as="geometry"/>
                </mxCell>
                <mxCell id="142" value="1" style="text;html=1;strokeColor=none;fillColor=none;align=center;verticalAlign=middle;whiteSpace=wrap;rounded=0;" parent="1" vertex="1">
                    <mxGeometry x="90" y="655" width="60" height="30" as="geometry"/>
                </mxCell>
                <mxCell id="143" value="2" style="text;html=1;strokeColor=none;fillColor=none;align=center;verticalAlign=middle;whiteSpace=wrap;rounded=0;" parent="1" vertex="1">
                    <mxGeometry x="130" y="655" width="60" height="30" as="geometry"/>
                </mxCell>
                <mxCell id="144" value="3" style="text;html=1;strokeColor=none;fillColor=none;align=center;verticalAlign=middle;whiteSpace=wrap;rounded=0;" parent="1" vertex="1">
                    <mxGeometry x="170" y="655" width="60" height="30" as="geometry"/>
                </mxCell>
                <mxCell id="145" value="4" style="text;html=1;strokeColor=none;fillColor=none;align=center;verticalAlign=middle;whiteSpace=wrap;rounded=0;" parent="1" vertex="1">
                    <mxGeometry x="210" y="655" width="60" height="30" as="geometry"/>
                </mxCell>
                <mxCell id="146" value="5" style="text;html=1;strokeColor=none;fillColor=none;align=center;verticalAlign=middle;whiteSpace=wrap;rounded=0;" parent="1" vertex="1">
                    <mxGeometry x="250" y="655" width="60" height="30" as="geometry"/>
                </mxCell>
                <mxCell id="147" value="6" style="text;html=1;strokeColor=none;fillColor=none;align=center;verticalAlign=middle;whiteSpace=wrap;rounded=0;" parent="1" vertex="1">
                    <mxGeometry x="290" y="655" width="60" height="30" as="geometry"/>
                </mxCell>
                <mxCell id="148" value="7" style="text;html=1;strokeColor=none;fillColor=none;align=center;verticalAlign=middle;whiteSpace=wrap;rounded=0;" parent="1" vertex="1">
                    <mxGeometry x="330" y="655" width="60" height="30" as="geometry"/>
                </mxCell>
                <mxCell id="149" value="&lt;div style=&quot;background-color: rgb(38, 50, 56); font-family: &amp;quot;Droid Sans Mono&amp;quot;, &amp;quot;monospace&amp;quot;, monospace; font-size: 14px; line-height: 19px;&quot;&gt;&lt;font color=&quot;#ffcb6b&quot;&gt;Stored data type&lt;/font&gt;&lt;/div&gt;" style="rounded=0;whiteSpace=wrap;html=1;" parent="1" vertex="1">
                    <mxGeometry x="80" y="544.5" width="240" height="40" as="geometry"/>
                </mxCell>
                <mxCell id="150" value="Contains data" style="text;html=1;strokeColor=none;fillColor=none;align=center;verticalAlign=middle;whiteSpace=wrap;rounded=0;fontSize=12;" parent="1" vertex="1">
                    <mxGeometry x="350" y="725" width="60" height="30" as="geometry"/>
                </mxCell>
                <mxCell id="151" value="8" style="text;html=1;strokeColor=none;fillColor=none;align=center;verticalAlign=middle;whiteSpace=wrap;rounded=0;" parent="1" vertex="1">
                    <mxGeometry x="370" y="655" width="60" height="30" as="geometry"/>
                </mxCell>
                <mxCell id="152" value="Tuple field payload" style="rounded=0;whiteSpace=wrap;html=1;dashed=1;" parent="1" vertex="1">
                    <mxGeometry x="400" y="545" width="130" height="40" as="geometry"/>
                </mxCell>
                <mxCell id="153" value="Tuple field fragment - bool" style="text;html=1;strokeColor=none;fillColor=none;align=center;verticalAlign=middle;whiteSpace=wrap;rounded=0;fontSize=12;" parent="1" vertex="1">
                    <mxGeometry x="80" y="770" width="150" height="30" as="geometry"/>
                </mxCell>
                <mxCell id="154" value="1" style="rounded=0;whiteSpace=wrap;html=1;" parent="1" vertex="1">
                    <mxGeometry x="80" y="825" width="40" height="40" as="geometry"/>
                </mxCell>
                <mxCell id="155" value="0" style="rounded=0;whiteSpace=wrap;html=1;" parent="1" vertex="1">
                    <mxGeometry x="120" y="825" width="40" height="40" as="geometry"/>
                </mxCell>
                <mxCell id="156" value="0" style="rounded=0;whiteSpace=wrap;html=1;" parent="1" vertex="1">
                    <mxGeometry x="80" y="825" width="40" height="40" as="geometry"/>
                </mxCell>
                <mxCell id="157" value="0" style="rounded=0;whiteSpace=wrap;html=1;" parent="1" vertex="1">
                    <mxGeometry x="120" y="825" width="40" height="40" as="geometry"/>
                </mxCell>
                <mxCell id="158" value="0" style="rounded=0;whiteSpace=wrap;html=1;" parent="1" vertex="1">
                    <mxGeometry x="160" y="825" width="40" height="40" as="geometry"/>
                </mxCell>
                <mxCell id="159" value="0" style="rounded=0;whiteSpace=wrap;html=1;" parent="1" vertex="1">
                    <mxGeometry x="200" y="825" width="40" height="40" as="geometry"/>
                </mxCell>
                <mxCell id="160" value="0" style="rounded=0;whiteSpace=wrap;html=1;" parent="1" vertex="1">
                    <mxGeometry x="240" y="825" width="40" height="40" as="geometry"/>
                </mxCell>
                <mxCell id="161" value="0" style="rounded=0;whiteSpace=wrap;html=1;" parent="1" vertex="1">
                    <mxGeometry x="280" y="825" width="40" height="40" as="geometry"/>
                </mxCell>
                <mxCell id="162" value="0" style="text;html=1;strokeColor=none;fillColor=none;align=center;verticalAlign=middle;whiteSpace=wrap;rounded=0;" parent="1" vertex="1">
                    <mxGeometry x="50" y="795" width="60" height="30" as="geometry"/>
                </mxCell>
                <mxCell id="163" value="1" style="text;html=1;strokeColor=none;fillColor=none;align=center;verticalAlign=middle;whiteSpace=wrap;rounded=0;" parent="1" vertex="1">
                    <mxGeometry x="90" y="795" width="60" height="30" as="geometry"/>
                </mxCell>
                <mxCell id="164" value="2" style="text;html=1;strokeColor=none;fillColor=none;align=center;verticalAlign=middle;whiteSpace=wrap;rounded=0;" parent="1" vertex="1">
                    <mxGeometry x="130" y="795" width="60" height="30" as="geometry"/>
                </mxCell>
                <mxCell id="165" value="3" style="text;html=1;strokeColor=none;fillColor=none;align=center;verticalAlign=middle;whiteSpace=wrap;rounded=0;" parent="1" vertex="1">
                    <mxGeometry x="170" y="795" width="60" height="30" as="geometry"/>
                </mxCell>
                <mxCell id="166" value="4" style="text;html=1;strokeColor=none;fillColor=none;align=center;verticalAlign=middle;whiteSpace=wrap;rounded=0;" parent="1" vertex="1">
                    <mxGeometry x="210" y="795" width="60" height="30" as="geometry"/>
                </mxCell>
                <mxCell id="167" value="5" style="text;html=1;strokeColor=none;fillColor=none;align=center;verticalAlign=middle;whiteSpace=wrap;rounded=0;" parent="1" vertex="1">
                    <mxGeometry x="250" y="795" width="60" height="30" as="geometry"/>
                </mxCell>
                <mxCell id="168" value="6" style="text;html=1;strokeColor=none;fillColor=none;align=center;verticalAlign=middle;whiteSpace=wrap;rounded=0;" parent="1" vertex="1">
                    <mxGeometry x="290" y="795" width="60" height="30" as="geometry"/>
                </mxCell>
                <mxCell id="169" value="7" style="text;html=1;strokeColor=none;fillColor=none;align=center;verticalAlign=middle;whiteSpace=wrap;rounded=0;" parent="1" vertex="1">
                    <mxGeometry x="330" y="795" width="60" height="30" as="geometry"/>
                </mxCell>
                <mxCell id="171" value="8" style="text;html=1;strokeColor=none;fillColor=none;align=center;verticalAlign=middle;whiteSpace=wrap;rounded=0;" parent="1" vertex="1">
                    <mxGeometry x="370" y="795" width="60" height="30" as="geometry"/>
                </mxCell>
                <mxCell id="173" value="&lt;div style=&quot;background-color: rgb(38, 50, 56); font-family: &amp;quot;Droid Sans Mono&amp;quot;, &amp;quot;monospace&amp;quot;, monospace; font-size: 14px; line-height: 19px;&quot;&gt;&lt;font color=&quot;#ffcb6b&quot;&gt;Bool payload&lt;/font&gt;&lt;/div&gt;" style="rounded=0;whiteSpace=wrap;html=1;" parent="1" vertex="1">
                    <mxGeometry x="80" y="825" width="320" height="40" as="geometry"/>
                </mxCell>
                <mxCell id="191" value="Tuple field payload - int" style="text;html=1;strokeColor=none;fillColor=none;align=center;verticalAlign=middle;whiteSpace=wrap;rounded=0;fontSize=12;" parent="1" vertex="1">
                    <mxGeometry x="80" y="870" width="150" height="30" as="geometry"/>
                </mxCell>
                <mxCell id="192" value="1" style="rounded=0;whiteSpace=wrap;html=1;" parent="1" vertex="1">
                    <mxGeometry x="80" y="925" width="40" height="40" as="geometry"/>
                </mxCell>
                <mxCell id="193" value="0" style="rounded=0;whiteSpace=wrap;html=1;" parent="1" vertex="1">
                    <mxGeometry x="120" y="925" width="40" height="40" as="geometry"/>
                </mxCell>
                <mxCell id="194" value="0" style="rounded=0;whiteSpace=wrap;html=1;" parent="1" vertex="1">
                    <mxGeometry x="160" y="925" width="40" height="40" as="geometry"/>
                </mxCell>
                <mxCell id="195" value="0" style="rounded=0;whiteSpace=wrap;html=1;" parent="1" vertex="1">
                    <mxGeometry x="200" y="925" width="40" height="40" as="geometry"/>
                </mxCell>
                <mxCell id="196" value="0" style="rounded=0;whiteSpace=wrap;html=1;" parent="1" vertex="1">
                    <mxGeometry x="240" y="925" width="40" height="40" as="geometry"/>
                </mxCell>
                <mxCell id="197" value="0" style="rounded=0;whiteSpace=wrap;html=1;" parent="1" vertex="1">
                    <mxGeometry x="280" y="925" width="40" height="40" as="geometry"/>
                </mxCell>
                <mxCell id="198" value="0" style="rounded=0;whiteSpace=wrap;html=1;" parent="1" vertex="1">
                    <mxGeometry x="320" y="925" width="40" height="40" as="geometry"/>
                </mxCell>
                <mxCell id="199" value="0" style="rounded=0;whiteSpace=wrap;html=1;" parent="1" vertex="1">
                    <mxGeometry x="360" y="925" width="40" height="40" as="geometry"/>
                </mxCell>
                <mxCell id="200" value="0" style="text;html=1;strokeColor=none;fillColor=none;align=center;verticalAlign=middle;whiteSpace=wrap;rounded=0;" parent="1" vertex="1">
                    <mxGeometry x="50" y="895" width="60" height="30" as="geometry"/>
                </mxCell>
                <mxCell id="201" value="1" style="text;html=1;strokeColor=none;fillColor=none;align=center;verticalAlign=middle;whiteSpace=wrap;rounded=0;" parent="1" vertex="1">
                    <mxGeometry x="90" y="895" width="60" height="30" as="geometry"/>
                </mxCell>
                <mxCell id="202" value="2" style="text;html=1;strokeColor=none;fillColor=none;align=center;verticalAlign=middle;whiteSpace=wrap;rounded=0;" parent="1" vertex="1">
                    <mxGeometry x="130" y="895" width="60" height="30" as="geometry"/>
                </mxCell>
                <mxCell id="203" value="3" style="text;html=1;strokeColor=none;fillColor=none;align=center;verticalAlign=middle;whiteSpace=wrap;rounded=0;" parent="1" vertex="1">
                    <mxGeometry x="170" y="895" width="60" height="30" as="geometry"/>
                </mxCell>
                <mxCell id="204" value="4" style="text;html=1;strokeColor=none;fillColor=none;align=center;verticalAlign=middle;whiteSpace=wrap;rounded=0;" parent="1" vertex="1">
                    <mxGeometry x="210" y="895" width="60" height="30" as="geometry"/>
                </mxCell>
                <mxCell id="205" value="5" style="text;html=1;strokeColor=none;fillColor=none;align=center;verticalAlign=middle;whiteSpace=wrap;rounded=0;" parent="1" vertex="1">
                    <mxGeometry x="250" y="895" width="60" height="30" as="geometry"/>
                </mxCell>
                <mxCell id="206" value="6" style="text;html=1;strokeColor=none;fillColor=none;align=center;verticalAlign=middle;whiteSpace=wrap;rounded=0;" parent="1" vertex="1">
                    <mxGeometry x="290" y="895" width="60" height="30" as="geometry"/>
                </mxCell>
                <mxCell id="207" value="7" style="text;html=1;strokeColor=none;fillColor=none;align=center;verticalAlign=middle;whiteSpace=wrap;rounded=0;" parent="1" vertex="1">
                    <mxGeometry x="330" y="895" width="60" height="30" as="geometry"/>
                </mxCell>
                <mxCell id="208" value="8" style="text;html=1;strokeColor=none;fillColor=none;align=center;verticalAlign=middle;whiteSpace=wrap;rounded=0;" parent="1" vertex="1">
                    <mxGeometry x="370" y="895" width="60" height="30" as="geometry"/>
                </mxCell>
                <mxCell id="209" value="&lt;div style=&quot;background-color: rgb(38, 50, 56); font-family: &amp;quot;Droid Sans Mono&amp;quot;, &amp;quot;monospace&amp;quot;, monospace; font-size: 14px; line-height: 19px;&quot;&gt;&lt;font color=&quot;#ffcb6b&quot;&gt;Int payload&lt;/font&gt;&lt;/div&gt;" style="rounded=0;whiteSpace=wrap;html=1;" parent="1" vertex="1">
                    <mxGeometry x="80" y="925" width="400" height="40" as="geometry"/>
                </mxCell>
                <mxCell id="221" value="..." style="text;html=1;strokeColor=none;fillColor=none;align=center;verticalAlign=middle;whiteSpace=wrap;rounded=0;fontSize=12;" parent="1" vertex="1">
                    <mxGeometry x="414" y="895" width="60" height="30" as="geometry"/>
                </mxCell>
                <mxCell id="222" value="32" style="text;html=1;strokeColor=none;fillColor=none;align=center;verticalAlign=middle;whiteSpace=wrap;rounded=0;" parent="1" vertex="1">
                    <mxGeometry x="450" y="895" width="60" height="30" as="geometry"/>
                </mxCell>
                <mxCell id="223" value="Tuple field payload - uint" style="text;html=1;strokeColor=none;fillColor=none;align=center;verticalAlign=middle;whiteSpace=wrap;rounded=0;fontSize=12;" parent="1" vertex="1">
                    <mxGeometry x="80" y="980" width="150" height="30" as="geometry"/>
                </mxCell>
                <mxCell id="224" value="1" style="rounded=0;whiteSpace=wrap;html=1;" parent="1" vertex="1">
                    <mxGeometry x="80" y="1035" width="40" height="40" as="geometry"/>
                </mxCell>
                <mxCell id="225" value="0" style="rounded=0;whiteSpace=wrap;html=1;" parent="1" vertex="1">
                    <mxGeometry x="120" y="1035" width="40" height="40" as="geometry"/>
                </mxCell>
                <mxCell id="226" value="0" style="rounded=0;whiteSpace=wrap;html=1;" parent="1" vertex="1">
                    <mxGeometry x="160" y="1035" width="40" height="40" as="geometry"/>
                </mxCell>
                <mxCell id="227" value="0" style="rounded=0;whiteSpace=wrap;html=1;" parent="1" vertex="1">
                    <mxGeometry x="200" y="1035" width="40" height="40" as="geometry"/>
                </mxCell>
                <mxCell id="228" value="0" style="rounded=0;whiteSpace=wrap;html=1;" parent="1" vertex="1">
                    <mxGeometry x="240" y="1035" width="40" height="40" as="geometry"/>
                </mxCell>
                <mxCell id="229" value="0" style="rounded=0;whiteSpace=wrap;html=1;" parent="1" vertex="1">
                    <mxGeometry x="280" y="1035" width="40" height="40" as="geometry"/>
                </mxCell>
                <mxCell id="230" value="0" style="rounded=0;whiteSpace=wrap;html=1;" parent="1" vertex="1">
                    <mxGeometry x="320" y="1035" width="40" height="40" as="geometry"/>
                </mxCell>
                <mxCell id="231" value="0" style="rounded=0;whiteSpace=wrap;html=1;" parent="1" vertex="1">
                    <mxGeometry x="360" y="1035" width="40" height="40" as="geometry"/>
                </mxCell>
                <mxCell id="232" value="0" style="text;html=1;strokeColor=none;fillColor=none;align=center;verticalAlign=middle;whiteSpace=wrap;rounded=0;" parent="1" vertex="1">
                    <mxGeometry x="50" y="1005" width="60" height="30" as="geometry"/>
                </mxCell>
                <mxCell id="233" value="1" style="text;html=1;strokeColor=none;fillColor=none;align=center;verticalAlign=middle;whiteSpace=wrap;rounded=0;" parent="1" vertex="1">
                    <mxGeometry x="90" y="1005" width="60" height="30" as="geometry"/>
                </mxCell>
                <mxCell id="234" value="2" style="text;html=1;strokeColor=none;fillColor=none;align=center;verticalAlign=middle;whiteSpace=wrap;rounded=0;" parent="1" vertex="1">
                    <mxGeometry x="130" y="1005" width="60" height="30" as="geometry"/>
                </mxCell>
                <mxCell id="235" value="3" style="text;html=1;strokeColor=none;fillColor=none;align=center;verticalAlign=middle;whiteSpace=wrap;rounded=0;" parent="1" vertex="1">
                    <mxGeometry x="170" y="1005" width="60" height="30" as="geometry"/>
                </mxCell>
                <mxCell id="236" value="4" style="text;html=1;strokeColor=none;fillColor=none;align=center;verticalAlign=middle;whiteSpace=wrap;rounded=0;" parent="1" vertex="1">
                    <mxGeometry x="210" y="1005" width="60" height="30" as="geometry"/>
                </mxCell>
                <mxCell id="237" value="5" style="text;html=1;strokeColor=none;fillColor=none;align=center;verticalAlign=middle;whiteSpace=wrap;rounded=0;" parent="1" vertex="1">
                    <mxGeometry x="250" y="1005" width="60" height="30" as="geometry"/>
                </mxCell>
                <mxCell id="238" value="6" style="text;html=1;strokeColor=none;fillColor=none;align=center;verticalAlign=middle;whiteSpace=wrap;rounded=0;" parent="1" vertex="1">
                    <mxGeometry x="290" y="1005" width="60" height="30" as="geometry"/>
                </mxCell>
                <mxCell id="239" value="7" style="text;html=1;strokeColor=none;fillColor=none;align=center;verticalAlign=middle;whiteSpace=wrap;rounded=0;" parent="1" vertex="1">
                    <mxGeometry x="330" y="1005" width="60" height="30" as="geometry"/>
                </mxCell>
                <mxCell id="240" value="8" style="text;html=1;strokeColor=none;fillColor=none;align=center;verticalAlign=middle;whiteSpace=wrap;rounded=0;" parent="1" vertex="1">
                    <mxGeometry x="370" y="1005" width="60" height="30" as="geometry"/>
                </mxCell>
                <mxCell id="241" value="&lt;div style=&quot;background-color: rgb(38, 50, 56); font-family: &amp;quot;Droid Sans Mono&amp;quot;, &amp;quot;monospace&amp;quot;, monospace; font-size: 14px; line-height: 19px;&quot;&gt;&lt;font color=&quot;#ffcb6b&quot;&gt;UInt payload&lt;/font&gt;&lt;/div&gt;" style="rounded=0;whiteSpace=wrap;html=1;" parent="1" vertex="1">
                    <mxGeometry x="80" y="1035" width="400" height="40" as="geometry"/>
                </mxCell>
                <mxCell id="242" value="..." style="text;html=1;strokeColor=none;fillColor=none;align=center;verticalAlign=middle;whiteSpace=wrap;rounded=0;fontSize=12;" parent="1" vertex="1">
                    <mxGeometry x="414" y="1005" width="60" height="30" as="geometry"/>
                </mxCell>
                <mxCell id="243" value="32" style="text;html=1;strokeColor=none;fillColor=none;align=center;verticalAlign=middle;whiteSpace=wrap;rounded=0;" parent="1" vertex="1">
                    <mxGeometry x="450" y="1005" width="60" height="30" as="geometry"/>
                </mxCell>
                <mxCell id="244" value="Tuple field payload - float" style="text;html=1;strokeColor=none;fillColor=none;align=center;verticalAlign=middle;whiteSpace=wrap;rounded=0;fontSize=12;" parent="1" vertex="1">
                    <mxGeometry x="80" y="1075" width="150" height="30" as="geometry"/>
                </mxCell>
                <mxCell id="245" value="1" style="rounded=0;whiteSpace=wrap;html=1;" parent="1" vertex="1">
                    <mxGeometry x="80" y="1130" width="40" height="40" as="geometry"/>
                </mxCell>
                <mxCell id="246" value="0" style="rounded=0;whiteSpace=wrap;html=1;" parent="1" vertex="1">
                    <mxGeometry x="120" y="1130" width="40" height="40" as="geometry"/>
                </mxCell>
                <mxCell id="247" value="0" style="rounded=0;whiteSpace=wrap;html=1;" parent="1" vertex="1">
                    <mxGeometry x="160" y="1130" width="40" height="40" as="geometry"/>
                </mxCell>
                <mxCell id="248" value="0" style="rounded=0;whiteSpace=wrap;html=1;" parent="1" vertex="1">
                    <mxGeometry x="200" y="1130" width="40" height="40" as="geometry"/>
                </mxCell>
                <mxCell id="249" value="0" style="rounded=0;whiteSpace=wrap;html=1;" parent="1" vertex="1">
                    <mxGeometry x="240" y="1130" width="40" height="40" as="geometry"/>
                </mxCell>
                <mxCell id="250" value="0" style="rounded=0;whiteSpace=wrap;html=1;" parent="1" vertex="1">
                    <mxGeometry x="280" y="1130" width="40" height="40" as="geometry"/>
                </mxCell>
                <mxCell id="251" value="0" style="rounded=0;whiteSpace=wrap;html=1;" parent="1" vertex="1">
                    <mxGeometry x="320" y="1130" width="40" height="40" as="geometry"/>
                </mxCell>
                <mxCell id="252" value="0" style="rounded=0;whiteSpace=wrap;html=1;" parent="1" vertex="1">
                    <mxGeometry x="360" y="1130" width="40" height="40" as="geometry"/>
                </mxCell>
                <mxCell id="253" value="0" style="text;html=1;strokeColor=none;fillColor=none;align=center;verticalAlign=middle;whiteSpace=wrap;rounded=0;" parent="1" vertex="1">
                    <mxGeometry x="50" y="1100" width="60" height="30" as="geometry"/>
                </mxCell>
                <mxCell id="254" value="1" style="text;html=1;strokeColor=none;fillColor=none;align=center;verticalAlign=middle;whiteSpace=wrap;rounded=0;" parent="1" vertex="1">
                    <mxGeometry x="90" y="1100" width="60" height="30" as="geometry"/>
                </mxCell>
                <mxCell id="255" value="2" style="text;html=1;strokeColor=none;fillColor=none;align=center;verticalAlign=middle;whiteSpace=wrap;rounded=0;" parent="1" vertex="1">
                    <mxGeometry x="130" y="1100" width="60" height="30" as="geometry"/>
                </mxCell>
                <mxCell id="256" value="3" style="text;html=1;strokeColor=none;fillColor=none;align=center;verticalAlign=middle;whiteSpace=wrap;rounded=0;" parent="1" vertex="1">
                    <mxGeometry x="170" y="1100" width="60" height="30" as="geometry"/>
                </mxCell>
                <mxCell id="257" value="4" style="text;html=1;strokeColor=none;fillColor=none;align=center;verticalAlign=middle;whiteSpace=wrap;rounded=0;" parent="1" vertex="1">
                    <mxGeometry x="210" y="1100" width="60" height="30" as="geometry"/>
                </mxCell>
                <mxCell id="258" value="5" style="text;html=1;strokeColor=none;fillColor=none;align=center;verticalAlign=middle;whiteSpace=wrap;rounded=0;" parent="1" vertex="1">
                    <mxGeometry x="250" y="1100" width="60" height="30" as="geometry"/>
                </mxCell>
                <mxCell id="259" value="6" style="text;html=1;strokeColor=none;fillColor=none;align=center;verticalAlign=middle;whiteSpace=wrap;rounded=0;" parent="1" vertex="1">
                    <mxGeometry x="290" y="1100" width="60" height="30" as="geometry"/>
                </mxCell>
                <mxCell id="260" value="7" style="text;html=1;strokeColor=none;fillColor=none;align=center;verticalAlign=middle;whiteSpace=wrap;rounded=0;" parent="1" vertex="1">
                    <mxGeometry x="330" y="1100" width="60" height="30" as="geometry"/>
                </mxCell>
                <mxCell id="261" value="8" style="text;html=1;strokeColor=none;fillColor=none;align=center;verticalAlign=middle;whiteSpace=wrap;rounded=0;" parent="1" vertex="1">
                    <mxGeometry x="370" y="1100" width="60" height="30" as="geometry"/>
                </mxCell>
                <mxCell id="262" value="&lt;div style=&quot;background-color: rgb(38, 50, 56); font-family: &amp;quot;Droid Sans Mono&amp;quot;, &amp;quot;monospace&amp;quot;, monospace; font-size: 14px; line-height: 19px;&quot;&gt;&lt;font color=&quot;#ffcb6b&quot;&gt;Float payload&lt;/font&gt;&lt;/div&gt;" style="rounded=0;whiteSpace=wrap;html=1;" parent="1" vertex="1">
                    <mxGeometry x="80" y="1130" width="400" height="40" as="geometry"/>
                </mxCell>
                <mxCell id="263" value="..." style="text;html=1;strokeColor=none;fillColor=none;align=center;verticalAlign=middle;whiteSpace=wrap;rounded=0;fontSize=12;" parent="1" vertex="1">
                    <mxGeometry x="414" y="1100" width="60" height="30" as="geometry"/>
                </mxCell>
                <mxCell id="264" value="32" style="text;html=1;strokeColor=none;fillColor=none;align=center;verticalAlign=middle;whiteSpace=wrap;rounded=0;" parent="1" vertex="1">
                    <mxGeometry x="450" y="1100" width="60" height="30" as="geometry"/>
                </mxCell>
                <mxCell id="265" value="Tuple field payload - String" style="text;html=1;strokeColor=none;fillColor=none;align=center;verticalAlign=middle;whiteSpace=wrap;rounded=0;fontSize=12;" parent="1" vertex="1">
                    <mxGeometry x="80" y="1200" width="150" height="30" as="geometry"/>
                </mxCell>
                <mxCell id="266" value="1" style="rounded=0;whiteSpace=wrap;html=1;" parent="1" vertex="1">
                    <mxGeometry x="80" y="1255" width="40" height="40" as="geometry"/>
                </mxCell>
                <mxCell id="267" value="0" style="rounded=0;whiteSpace=wrap;html=1;" parent="1" vertex="1">
                    <mxGeometry x="120" y="1255" width="40" height="40" as="geometry"/>
                </mxCell>
                <mxCell id="268" value="0" style="rounded=0;whiteSpace=wrap;html=1;" parent="1" vertex="1">
                    <mxGeometry x="160" y="1255" width="40" height="40" as="geometry"/>
                </mxCell>
                <mxCell id="269" value="0" style="rounded=0;whiteSpace=wrap;html=1;" parent="1" vertex="1">
                    <mxGeometry x="200" y="1255" width="40" height="40" as="geometry"/>
                </mxCell>
                <mxCell id="270" value="0" style="rounded=0;whiteSpace=wrap;html=1;" parent="1" vertex="1">
                    <mxGeometry x="240" y="1255" width="40" height="40" as="geometry"/>
                </mxCell>
                <mxCell id="271" value="0" style="rounded=0;whiteSpace=wrap;html=1;" parent="1" vertex="1">
                    <mxGeometry x="280" y="1255" width="40" height="40" as="geometry"/>
                </mxCell>
                <mxCell id="272" value="0" style="rounded=0;whiteSpace=wrap;html=1;" parent="1" vertex="1">
                    <mxGeometry x="320" y="1255" width="40" height="40" as="geometry"/>
                </mxCell>
                <mxCell id="273" value="0" style="rounded=0;whiteSpace=wrap;html=1;" parent="1" vertex="1">
                    <mxGeometry x="360" y="1255" width="40" height="40" as="geometry"/>
                </mxCell>
                <mxCell id="274" value="0" style="text;html=1;strokeColor=none;fillColor=none;align=center;verticalAlign=middle;whiteSpace=wrap;rounded=0;" parent="1" vertex="1">
                    <mxGeometry x="60" y="1225" width="60" height="30" as="geometry"/>
                </mxCell>
                <mxCell id="275" value="1" style="text;html=1;strokeColor=none;fillColor=none;align=center;verticalAlign=middle;whiteSpace=wrap;rounded=0;" parent="1" vertex="1">
                    <mxGeometry x="90" y="1225" width="60" height="30" as="geometry"/>
                </mxCell>
                <mxCell id="276" value="2" style="text;html=1;strokeColor=none;fillColor=none;align=center;verticalAlign=middle;whiteSpace=wrap;rounded=0;" parent="1" vertex="1">
                    <mxGeometry x="130" y="1225" width="60" height="30" as="geometry"/>
                </mxCell>
                <mxCell id="277" value="3" style="text;html=1;strokeColor=none;fillColor=none;align=center;verticalAlign=middle;whiteSpace=wrap;rounded=0;" parent="1" vertex="1">
                    <mxGeometry x="170" y="1225" width="60" height="30" as="geometry"/>
                </mxCell>
                <mxCell id="278" value="4" style="text;html=1;strokeColor=none;fillColor=none;align=center;verticalAlign=middle;whiteSpace=wrap;rounded=0;" parent="1" vertex="1">
                    <mxGeometry x="210" y="1225" width="60" height="30" as="geometry"/>
                </mxCell>
                <mxCell id="279" value="5" style="text;html=1;strokeColor=none;fillColor=none;align=center;verticalAlign=middle;whiteSpace=wrap;rounded=0;" parent="1" vertex="1">
                    <mxGeometry x="250" y="1225" width="60" height="30" as="geometry"/>
                </mxCell>
                <mxCell id="280" value="6" style="text;html=1;strokeColor=none;fillColor=none;align=center;verticalAlign=middle;whiteSpace=wrap;rounded=0;" parent="1" vertex="1">
                    <mxGeometry x="290" y="1225" width="60" height="30" as="geometry"/>
                </mxCell>
                <mxCell id="281" value="7" style="text;html=1;strokeColor=none;fillColor=none;align=center;verticalAlign=middle;whiteSpace=wrap;rounded=0;" parent="1" vertex="1">
                    <mxGeometry x="330" y="1225" width="60" height="30" as="geometry"/>
                </mxCell>
                <mxCell id="282" value="8" style="text;html=1;strokeColor=none;fillColor=none;align=center;verticalAlign=middle;whiteSpace=wrap;rounded=0;" parent="1" vertex="1">
                    <mxGeometry x="370" y="1225" width="60" height="30" as="geometry"/>
                </mxCell>
                <mxCell id="283" value="&lt;div style=&quot;background-color: rgb(38, 50, 56); font-family: &amp;quot;Droid Sans Mono&amp;quot;, &amp;quot;monospace&amp;quot;, monospace; font-size: 14px; line-height: 19px;&quot;&gt;&lt;font color=&quot;#ffcb6b&quot;&gt;Float payload&lt;/font&gt;&lt;/div&gt;" style="rounded=0;whiteSpace=wrap;html=1;" parent="1" vertex="1">
                    <mxGeometry x="80" y="1255" width="320" height="40" as="geometry"/>
                </mxCell>
                <mxCell id="285" value="16" style="text;html=1;strokeColor=none;fillColor=none;align=center;verticalAlign=middle;whiteSpace=wrap;rounded=0;" parent="1" vertex="1">
                    <mxGeometry x="690" y="1225" width="60" height="30" as="geometry"/>
                </mxCell>
                <mxCell id="286" value="&lt;div style=&quot;background-color: rgb(38, 50, 56); font-family: &amp;quot;Droid Sans Mono&amp;quot;, &amp;quot;monospace&amp;quot;, monospace; font-size: 14px; line-height: 19px;&quot;&gt;&lt;font color=&quot;#ffcb6b&quot;&gt;String size&lt;/font&gt;&lt;/div&gt;" style="rounded=0;whiteSpace=wrap;html=1;" parent="1" vertex="1">
                    <mxGeometry x="80" y="1255" width="640" height="40" as="geometry"/>
                </mxCell>
                <mxCell id="287" value="9" style="text;html=1;strokeColor=none;fillColor=none;align=center;verticalAlign=middle;whiteSpace=wrap;rounded=0;" parent="1" vertex="1">
                    <mxGeometry x="410" y="1225" width="60" height="30" as="geometry"/>
                </mxCell>
                <mxCell id="288" value="10&lt;span style=&quot;color: rgba(0, 0, 0, 0); font-family: monospace; font-size: 0px; text-align: start;&quot;&gt;%3CmxGraphModel%3E%3Croot%3E%3CmxCell%20id%3D%220%22%2F%3E%3CmxCell%20id%3D%221%22%20parent%3D%220%22%2F%3E%3CmxCell%20id%3D%222%22%20value%3D%228%22%20style%3D%22text%3Bhtml%3D1%3BstrokeColor%3Dnone%3BfillColor%3Dnone%3Balign%3Dcenter%3BverticalAlign%3Dmiddle%3BwhiteSpace%3Dwrap%3Brounded%3D0%3B%22%20vertex%3D%221%22%20parent%3D%221%22%3E%3CmxGeometry%20x%3D%22370%22%20y%3D%221225%22%20width%3D%2260%22%20height%3D%2230%22%20as%3D%22geometry%22%2F%3E%3C%2FmxCell%3E%3C%2Froot%3E%3C%2FmxGraphModel%3E&lt;/span&gt;" style="text;html=1;strokeColor=none;fillColor=none;align=center;verticalAlign=middle;whiteSpace=wrap;rounded=0;" parent="1" vertex="1">
                    <mxGeometry x="450" y="1225" width="60" height="30" as="geometry"/>
                </mxCell>
                <mxCell id="289" value="11" style="text;html=1;strokeColor=none;fillColor=none;align=center;verticalAlign=middle;whiteSpace=wrap;rounded=0;" parent="1" vertex="1">
                    <mxGeometry x="490" y="1225" width="60" height="30" as="geometry"/>
                </mxCell>
                <mxCell id="290" value="12" style="text;html=1;strokeColor=none;fillColor=none;align=center;verticalAlign=middle;whiteSpace=wrap;rounded=0;" parent="1" vertex="1">
                    <mxGeometry x="530" y="1225" width="60" height="30" as="geometry"/>
                </mxCell>
                <mxCell id="291" value="13" style="text;html=1;strokeColor=none;fillColor=none;align=center;verticalAlign=middle;whiteSpace=wrap;rounded=0;" parent="1" vertex="1">
                    <mxGeometry x="570" y="1225" width="60" height="30" as="geometry"/>
                </mxCell>
                <mxCell id="292" value="14" style="text;html=1;strokeColor=none;fillColor=none;align=center;verticalAlign=middle;whiteSpace=wrap;rounded=0;" parent="1" vertex="1">
                    <mxGeometry x="610" y="1225" width="60" height="30" as="geometry"/>
                </mxCell>
                <mxCell id="293" value="15" style="text;html=1;strokeColor=none;fillColor=none;align=center;verticalAlign=middle;whiteSpace=wrap;rounded=0;" parent="1" vertex="1">
                    <mxGeometry x="650" y="1225" width="60" height="30" as="geometry"/>
                </mxCell>
                <mxCell id="294" value="&lt;div style=&quot;background-color: rgb(38, 50, 56); font-family: &amp;quot;Droid Sans Mono&amp;quot;, &amp;quot;monospace&amp;quot;, monospace; font-size: 14px; line-height: 19px;&quot;&gt;&lt;font color=&quot;#ffcb6b&quot;&gt;String Payload&lt;/font&gt;&lt;/div&gt;" style="rounded=0;whiteSpace=wrap;html=1;" parent="1" vertex="1">
                    <mxGeometry x="720" y="1255" width="160" height="40" as="geometry"/>
                </mxCell>
                <mxCell id="296" value="17" style="text;html=1;strokeColor=none;fillColor=none;align=center;verticalAlign=middle;whiteSpace=wrap;rounded=0;" parent="1" vertex="1">
                    <mxGeometry x="730" y="1225" width="60" height="30" as="geometry"/>
                </mxCell>
                <mxCell id="297" value="18" style="text;html=1;strokeColor=none;fillColor=none;align=center;verticalAlign=middle;whiteSpace=wrap;rounded=0;" parent="1" vertex="1">
                    <mxGeometry x="770" y="1225" width="60" height="30" as="geometry"/>
                </mxCell>
                <mxCell id="298" value="..." style="text;html=1;strokeColor=none;fillColor=none;align=center;verticalAlign=middle;whiteSpace=wrap;rounded=0;" parent="1" vertex="1">
                    <mxGeometry x="810" y="1225" width="60" height="30" as="geometry"/>
                </mxCell>
                <mxCell id="299" value="16 + String size * 8 bits" style="text;html=1;strokeColor=none;fillColor=none;align=center;verticalAlign=middle;whiteSpace=wrap;rounded=0;" parent="1" vertex="1">
                    <mxGeometry x="845" y="1225" width="70" height="30" as="geometry"/>
                </mxCell>
                <mxCell id="301" value="Bool value" style="text;html=1;strokeColor=none;fillColor=none;align=center;verticalAlign=middle;whiteSpace=wrap;rounded=0;fontSize=12;" parent="1" vertex="1">
                    <mxGeometry x="315" y="585" width="50" height="30" as="geometry"/>
                </mxCell>
                <mxCell id="302" value="Bool value" style="text;html=1;strokeColor=none;fillColor=none;align=center;verticalAlign=middle;whiteSpace=wrap;rounded=0;fontSize=12;" parent="1" vertex="1">
                    <mxGeometry x="315" y="725" width="50" height="30" as="geometry"/>
                </mxCell>
                <mxCell id="304" value="Not used" style="rounded=0;whiteSpace=wrap;html=1;" parent="1" vertex="1">
                    <mxGeometry x="320" y="545" width="40" height="40" as="geometry"/>
                </mxCell>
                <mxCell id="307" value="1" style="rounded=0;whiteSpace=wrap;html=1;" parent="1" vertex="1">
                    <mxGeometry x="80" y="825" width="40" height="40" as="geometry"/>
                </mxCell>
                <mxCell id="308" value="0" style="rounded=0;whiteSpace=wrap;html=1;" parent="1" vertex="1">
                    <mxGeometry x="120" y="825" width="40" height="40" as="geometry"/>
                </mxCell>
                <mxCell id="309" value="1" style="rounded=0;whiteSpace=wrap;html=1;" parent="1" vertex="1">
                    <mxGeometry x="160" y="825" width="40" height="40" as="geometry"/>
                </mxCell>
                <mxCell id="310" value="0" style="rounded=0;whiteSpace=wrap;html=1;" parent="1" vertex="1">
                    <mxGeometry x="200" y="825" width="40" height="40" as="geometry"/>
                </mxCell>
                <mxCell id="311" value="0" style="rounded=0;whiteSpace=wrap;html=1;" parent="1" vertex="1">
                    <mxGeometry x="240" y="825" width="40" height="40" as="geometry"/>
                </mxCell>
                <mxCell id="312" value="0" style="rounded=0;whiteSpace=wrap;html=1;" parent="1" vertex="1">
                    <mxGeometry x="280" y="825" width="40" height="40" as="geometry"/>
                </mxCell>
                <mxCell id="313" value="&lt;div style=&quot;background-color: rgb(38, 50, 56); font-family: &amp;quot;Droid Sans Mono&amp;quot;, &amp;quot;monospace&amp;quot;, monospace; line-height: 19px;&quot;&gt;&lt;font style=&quot;font-size: 10px;&quot; color=&quot;#ffcb6b&quot;&gt;Bool value&lt;/font&gt;&lt;/div&gt;" style="rounded=0;whiteSpace=wrap;html=1;" parent="1" vertex="1">
                    <mxGeometry x="320" y="825" width="40" height="40" as="geometry"/>
                </mxCell>
                <mxCell id="315" value="&lt;div style=&quot;background-color: rgb(38, 50, 56); font-family: &amp;quot;Droid Sans Mono&amp;quot;, &amp;quot;monospace&amp;quot;, monospace; font-size: 14px; line-height: 19px;&quot;&gt;&lt;font color=&quot;#ffcb6b&quot;&gt;Stored data type&lt;/font&gt;&lt;/div&gt;" style="rounded=0;whiteSpace=wrap;html=1;" parent="1" vertex="1">
                    <mxGeometry x="80" y="685" width="240" height="40" as="geometry"/>
                </mxCell>
                <mxCell id="316" value="1" style="rounded=0;whiteSpace=wrap;html=1;" parent="1" vertex="1">
                    <mxGeometry x="360" y="825" width="40" height="40" as="geometry"/>
                </mxCell>
                <mxCell id="317" value="Contains data" style="text;html=1;strokeColor=none;fillColor=none;align=center;verticalAlign=middle;whiteSpace=wrap;rounded=0;fontSize=12;" parent="1" vertex="1">
                    <mxGeometry x="350" y="865" width="60" height="30" as="geometry"/>
                </mxCell>
                <mxCell id="319" value="Client to server get tuple message" style="text;html=1;strokeColor=none;fillColor=none;align=center;verticalAlign=middle;whiteSpace=wrap;rounded=0;dashed=1;" parent="1" vertex="1">
                    <mxGeometry x="80" y="380" width="200" height="30" as="geometry"/>
                </mxCell>
                <mxCell id="338" value="0" style="rounded=0;whiteSpace=wrap;html=1;" parent="1" vertex="1">
                    <mxGeometry x="80" y="430" width="40" height="40" as="geometry"/>
                </mxCell>
                <mxCell id="339" value="1" style="rounded=0;whiteSpace=wrap;html=1;" parent="1" vertex="1">
                    <mxGeometry x="120" y="430" width="40" height="40" as="geometry"/>
                </mxCell>
                <mxCell id="340" value="0" style="rounded=0;whiteSpace=wrap;html=1;" parent="1" vertex="1">
                    <mxGeometry x="160" y="430" width="40" height="40" as="geometry"/>
                </mxCell>
                <mxCell id="341" value="0" style="rounded=0;whiteSpace=wrap;html=1;" parent="1" vertex="1">
                    <mxGeometry x="200" y="430" width="40" height="40" as="geometry"/>
                </mxCell>
                <mxCell id="342" value="0" style="rounded=0;whiteSpace=wrap;html=1;" parent="1" vertex="1">
                    <mxGeometry x="240" y="430" width="40" height="40" as="geometry"/>
                </mxCell>
                <mxCell id="343" value="0" style="rounded=0;whiteSpace=wrap;html=1;" parent="1" vertex="1">
                    <mxGeometry x="280" y="430" width="40" height="40" as="geometry"/>
                </mxCell>
                <mxCell id="344" value="0" style="rounded=0;whiteSpace=wrap;html=1;" parent="1" vertex="1">
                    <mxGeometry x="320" y="430" width="40" height="40" as="geometry"/>
                </mxCell>
                <mxCell id="345" value="0" style="rounded=0;whiteSpace=wrap;html=1;" parent="1" vertex="1">
                    <mxGeometry x="360" y="430" width="40" height="40" as="geometry"/>
                </mxCell>
                <mxCell id="346" value="&lt;div style=&quot;background-color: rgb(38, 50, 56); font-family: &amp;quot;Droid Sans Mono&amp;quot;, &amp;quot;monospace&amp;quot;, monospace; font-size: 14px; line-height: 19px;&quot;&gt;&lt;font color=&quot;#ffcb6b&quot;&gt;TUPLE SIZE-1&lt;/font&gt;&lt;/div&gt;" style="rounded=0;whiteSpace=wrap;html=1;" parent="1" vertex="1">
                    <mxGeometry x="240" y="430" width="160" height="40" as="geometry"/>
                </mxCell>
                <mxCell id="347" value="TUPLE SIZE of tuple fragments..." style="rounded=0;whiteSpace=wrap;html=1;dashed=1;" parent="1" vertex="1">
                    <mxGeometry x="720" y="430" width="130" height="40" as="geometry"/>
                </mxCell>
                <mxCell id="348" value="0" style="text;html=1;strokeColor=none;fillColor=none;align=center;verticalAlign=middle;whiteSpace=wrap;rounded=0;" parent="1" vertex="1">
                    <mxGeometry x="50" y="400" width="60" height="30" as="geometry"/>
                </mxCell>
                <mxCell id="349" value="1" style="text;html=1;strokeColor=none;fillColor=none;align=center;verticalAlign=middle;whiteSpace=wrap;rounded=0;" parent="1" vertex="1">
                    <mxGeometry x="90" y="400" width="60" height="30" as="geometry"/>
                </mxCell>
                <mxCell id="350" value="2" style="text;html=1;strokeColor=none;fillColor=none;align=center;verticalAlign=middle;whiteSpace=wrap;rounded=0;" parent="1" vertex="1">
                    <mxGeometry x="130" y="400" width="60" height="30" as="geometry"/>
                </mxCell>
                <mxCell id="351" value="3" style="text;html=1;strokeColor=none;fillColor=none;align=center;verticalAlign=middle;whiteSpace=wrap;rounded=0;" parent="1" vertex="1">
                    <mxGeometry x="170" y="400" width="60" height="30" as="geometry"/>
                </mxCell>
                <mxCell id="352" value="4" style="text;html=1;strokeColor=none;fillColor=none;align=center;verticalAlign=middle;whiteSpace=wrap;rounded=0;" parent="1" vertex="1">
                    <mxGeometry x="210" y="400" width="60" height="30" as="geometry"/>
                </mxCell>
                <mxCell id="353" value="5" style="text;html=1;strokeColor=none;fillColor=none;align=center;verticalAlign=middle;whiteSpace=wrap;rounded=0;" parent="1" vertex="1">
                    <mxGeometry x="250" y="400" width="60" height="30" as="geometry"/>
                </mxCell>
                <mxCell id="354" value="6" style="text;html=1;strokeColor=none;fillColor=none;align=center;verticalAlign=middle;whiteSpace=wrap;rounded=0;" parent="1" vertex="1">
                    <mxGeometry x="290" y="400" width="60" height="30" as="geometry"/>
                </mxCell>
                <mxCell id="355" value="7" style="text;html=1;strokeColor=none;fillColor=none;align=center;verticalAlign=middle;whiteSpace=wrap;rounded=0;" parent="1" vertex="1">
                    <mxGeometry x="330" y="400" width="60" height="30" as="geometry"/>
                </mxCell>
                <mxCell id="356" value="8" style="text;html=1;strokeColor=none;fillColor=none;align=center;verticalAlign=middle;whiteSpace=wrap;rounded=0;" parent="1" vertex="1">
                    <mxGeometry x="370" y="400" width="60" height="30" as="geometry"/>
                </mxCell>
                <mxCell id="357" value="&lt;font color=&quot;#f00707&quot; style=&quot;font-size: 16px;&quot;&gt;This field cannot be used in the&amp;nbsp;client to server send tuple message type&lt;/font&gt;" style="text;html=1;strokeColor=none;fillColor=none;align=center;verticalAlign=middle;whiteSpace=wrap;rounded=0;fontSize=10;" parent="1" vertex="1">
                    <mxGeometry x="435" y="685" width="305" height="30" as="geometry"/>
                </mxCell>
                <mxCell id="358" value="16" style="text;html=1;strokeColor=none;fillColor=none;align=center;verticalAlign=middle;whiteSpace=wrap;rounded=0;" parent="1" vertex="1">
                    <mxGeometry x="690" y="400" width="60" height="30" as="geometry"/>
                </mxCell>
                <mxCell id="359" value="10&lt;span style=&quot;color: rgba(0, 0, 0, 0); font-family: monospace; font-size: 0px; text-align: start;&quot;&gt;%3CmxGraphModel%3E%3Croot%3E%3CmxCell%20id%3D%220%22%2F%3E%3CmxCell%20id%3D%221%22%20parent%3D%220%22%2F%3E%3CmxCell%20id%3D%222%22%20value%3D%228%22%20style%3D%22text%3Bhtml%3D1%3BstrokeColor%3Dnone%3BfillColor%3Dnone%3Balign%3Dcenter%3BverticalAlign%3Dmiddle%3BwhiteSpace%3Dwrap%3Brounded%3D0%3B%22%20vertex%3D%221%22%20parent%3D%221%22%3E%3CmxGeometry%20x%3D%22370%22%20y%3D%221225%22%20width%3D%2260%22%20height%3D%2230%22%20as%3D%22geometry%22%2F%3E%3C%2FmxCell%3E%3C%2Froot%3E%3C%2FmxGraphModel%3E&lt;/span&gt;" style="text;html=1;strokeColor=none;fillColor=none;align=center;verticalAlign=middle;whiteSpace=wrap;rounded=0;" parent="1" vertex="1">
                    <mxGeometry x="450" y="400" width="60" height="30" as="geometry"/>
                </mxCell>
                <mxCell id="360" value="11" style="text;html=1;strokeColor=none;fillColor=none;align=center;verticalAlign=middle;whiteSpace=wrap;rounded=0;" parent="1" vertex="1">
                    <mxGeometry x="490" y="400" width="60" height="30" as="geometry"/>
                </mxCell>
                <mxCell id="361" value="12" style="text;html=1;strokeColor=none;fillColor=none;align=center;verticalAlign=middle;whiteSpace=wrap;rounded=0;" parent="1" vertex="1">
                    <mxGeometry x="530" y="400" width="60" height="30" as="geometry"/>
                </mxCell>
                <mxCell id="362" value="13" style="text;html=1;strokeColor=none;fillColor=none;align=center;verticalAlign=middle;whiteSpace=wrap;rounded=0;" parent="1" vertex="1">
                    <mxGeometry x="570" y="400" width="60" height="30" as="geometry"/>
                </mxCell>
                <mxCell id="363" value="14" style="text;html=1;strokeColor=none;fillColor=none;align=center;verticalAlign=middle;whiteSpace=wrap;rounded=0;" parent="1" vertex="1">
                    <mxGeometry x="610" y="400" width="60" height="30" as="geometry"/>
                </mxCell>
                <mxCell id="364" value="15" style="text;html=1;strokeColor=none;fillColor=none;align=center;verticalAlign=middle;whiteSpace=wrap;rounded=0;" parent="1" vertex="1">
                    <mxGeometry x="650" y="400" width="60" height="30" as="geometry"/>
                </mxCell>
                <mxCell id="365" value="9" style="text;html=1;strokeColor=none;fillColor=none;align=center;verticalAlign=middle;whiteSpace=wrap;rounded=0;" parent="1" vertex="1">
                    <mxGeometry x="414" y="400" width="60" height="30" as="geometry"/>
                </mxCell>
                <mxCell id="367" value="&lt;div style=&quot;background-color: rgb(38, 50, 56); font-family: &amp;quot;Droid Sans Mono&amp;quot;, &amp;quot;monospace&amp;quot;, monospace; font-size: 14px; line-height: 19px;&quot;&gt;&lt;font color=&quot;#ffcb6b&quot;&gt;Reserved&lt;/font&gt;&lt;/div&gt;" style="rounded=0;whiteSpace=wrap;html=1;" parent="1" vertex="1">
                    <mxGeometry x="480" y="430" width="240" height="40" as="geometry"/>
                </mxCell>
                <mxCell id="370" value="Flags" style="text;html=1;strokeColor=none;fillColor=none;align=center;verticalAlign=middle;whiteSpace=wrap;rounded=0;dashed=1;" parent="1" vertex="1">
                    <mxGeometry x="460" y="500" width="200" height="30" as="geometry"/>
                </mxCell>
                <mxCell id="372" value="&lt;div style=&quot;background-color: rgb(38, 50, 56); font-family: &amp;quot;Droid Sans Mono&amp;quot;, &amp;quot;monospace&amp;quot;, monospace; line-height: 19px;&quot;&gt;&lt;font color=&quot;#ffcb6b&quot;&gt;&lt;span style=&quot;font-size: 14px;&quot;&gt;Rm&lt;/span&gt;&lt;/font&gt;&lt;/div&gt;" style="rounded=0;whiteSpace=wrap;html=1;" parent="1" vertex="1">
                    <mxGeometry x="400" y="430" width="40" height="40" as="geometry"/>
                </mxCell>
                <mxCell id="373" value="&lt;div style=&quot;background-color: rgb(38, 50, 56); font-family: &amp;quot;Droid Sans Mono&amp;quot;, &amp;quot;monospace&amp;quot;, monospace; line-height: 19px;&quot;&gt;&lt;font color=&quot;#ffcb6b&quot;&gt;&lt;span style=&quot;font-size: 14px;&quot;&gt;Rsp&lt;/span&gt;&lt;/font&gt;&lt;/div&gt;" style="rounded=0;whiteSpace=wrap;html=1;" parent="1" vertex="1">
                    <mxGeometry x="440" y="430" width="40" height="40" as="geometry"/>
                </mxCell>
                <mxCell id="375" value="Rm - remove from tuple space when returned" style="text;html=1;strokeColor=none;fillColor=none;align=center;verticalAlign=middle;whiteSpace=wrap;rounded=0;dashed=1;" parent="1" vertex="1">
                    <mxGeometry x="860" y="410" width="260" height="30" as="geometry"/>
                </mxCell>
                <mxCell id="376" value="Rsp - respond with tuple when available in ts" style="text;html=1;strokeColor=none;fillColor=none;align=center;verticalAlign=middle;whiteSpace=wrap;rounded=0;dashed=1;" parent="1" vertex="1">
                    <mxGeometry x="860" y="430" width="260" height="30" as="geometry"/>
                </mxCell>
                <mxCell id="377" value="" style="edgeStyle=none;orthogonalLoop=1;jettySize=auto;html=1;" edge="1" parent="1">
                    <mxGeometry width="80" relative="1" as="geometry">
                        <mxPoint x="40" y="250" as="sourcePoint"/>
                        <mxPoint x="120" y="250" as="targetPoint"/>
                        <Array as="points"/>
                    </mxGeometry>
                </mxCell>
            </root>
        </mxGraphModel>
    </diagram>
</mxfile>